:version 1.10
:name ASF
:units
  mass 1
  length 1
  angle deg
:documentation
  ASF file generated by Kaydara
:root
  axis xyz
  order  tx ty tz rx ry rz
  position 0 0 0
  orientation 0 0 0
:bonedata
  begin
    id 1
    name RightUpLegDummy
    direction -0.65628 -0.754516 0.00165102
    length 4.76918
    axis 0 0 0 xyz
  end
  begin
    id 2
    name RightUpLeg
    direction -0.145584 -0.923362 0.355256
    length 17.9961
    axis -24.7611 -13.1006 1.78531 xyz
    dof rx ry rz
  end
  begin
    id 3
    name RightLeg
    direction 0.263379 0.172355 -0.949171
    length 13.3386
    axis 89.6202 -21.1929 12.3855 xyz
    dof rx ry rz
  end
  begin
    id 4
    name RightFoot
    direction 0.224283 -0.968777 -0.105675
    length 5.86697
    axis 56.995 -39.6905 17.3365 xyz
    dof rx ry rz
  end
  begin
    id 5
    name RightToes
    direction -0.0806345 -0.9037 0.420506
    length 4.75197
    axis 146.825 -39.7828 17.6019 xyz
    dof rx ry rz
  end
  begin
    id 6
    name SpineDummy
    direction -3.39852e-014 1 9.33296e-014
    length 8.13779
    axis 0 0 0 xyz
  end
  begin
    id 7
    name Spine
    direction -0.156609 0.733703 0.661176
    length 7.14978
    axis 41.2365 5.68757 17.0844 xyz
    dof rx ry rz
  end
  begin
    id 8
    name Spine1
    direction 0 0 0
    length 0
    axis 42.8809 47.8308 -3.36039 xyz
    dof rx ry rz
  end
  begin
    id 9
    name HEadDummy
    direction 0.546431 0.701947 0.456819
    length 3.55512
    axis 42.8809 47.8308 -3.36039 xyz
  end
  begin
    id 10
    name HEad
    direction 0.23444 0.828559 0.508457
    length 7.35827
    axis 51.1864 49.2662 27.4903 xyz
    dof rx ry rz
  end
  begin
    id 11
    name LeftShoulder1Dummy
    direction 0.431183 0.475873 -0.766568
    length 2.49352
    axis 42.8809 47.8308 -3.36039 xyz
  end
  begin
    id 12
    name LeftShoulder1
    direction 0.268187 -0.383402 -0.883786
    length 4.48604
    axis -119.517 0.106469 35.1736 xyz
    dof rx ry rz
  end
  begin
    id 13
    name LeftArm
    direction 0.380567 -0.703221 -0.600541
    length 10.1142
    axis -5.41825 36.2925 7.8293 xyz
    dof rx ry rz
  end
  begin
    id 14
    name LeftForeArm
    direction 0.541071 -0.732356 -0.413396
    length 9.39839
    axis 4.65387 33.7604 7.81644 xyz
    dof rx ry rz
  end
  begin
    id 15
    name LeftHand
    direction 0.847511 -0.389379 -0.360707
    length 3.66142
    axis 7.65593 21.1436 -24.6758 xyz
    dof rx ry rz
  end
  begin
    id 16
    name RightShoulderDummy
    direction -0.692546 0.541855 0.476208
    length 2.49352
    axis 42.8809 47.8308 -3.36039 xyz
  end
  begin
    id 17
    name RightShoulder
    direction -0.870808 -0.316653 0.376065
    length 4.48602
    axis 141.571 51.133 -100.254 xyz
    dof rx ry rz
  end
  begin
    id 18
    name RightArm
    direction 0.366897 -0.87275 0.322015
    length 10.1142
    axis 92.3258 71.2036 138.917 xyz
    dof rx ry rz
  end
  begin
    id 19
    name RightForeArm
    direction 0.702487 -0.694568 0.155197
    length 9.39835
    axis 153.863 41.5092 -176.604 xyz
    dof rx ry rz
  end
  begin
    id 20
    name RightHand
    direction 0.79502 -0.601276 0.0800636
    length 3.66142
    axis 154.247 4.59222 142.9 xyz
    dof rx ry rz
  end
  begin
    id 21
    name LeftUpLegDummy
    direction 0.65628 -0.754516 0.00165102
    length 4.76919
    axis 0 0 0 xyz
  end
  begin
    id 22
    name LeftUpLeg
    direction -0.1277 -0.689368 0.713067
    length 17.9961
    axis -48.3385 -17.8675 0.791927 xyz
    dof rx ry rz
  end
  begin
    id 23
    name LeftLeg
    direction 0.109849 -0.991246 -0.0732378
    length 13.3386
    axis -2.05791 -7.30784 1.72042 xyz
    dof rx ry rz
  end
  begin
    id 24
    name LeftFoot
    direction 0.0448355 -0.272614 0.961078
    length 5.86697
    axis -18.7733 -7.89606 10.2113 xyz
    dof rx ry rz
  end
  begin
    id 25
    name LeftToes
    direction -0.18506 0.293668 0.937823
    length 4.75197
    axis 71.2267 -7.89606 10.2113 xyz
    dof rx ry rz
  end
:hierarchy
  begin
    root RightUpLegDummy SpineDummy LeftUpLegDummy
    RightUpLegDummy RightUpLeg
    RightUpLeg RightLeg
    RightLeg RightFoot
    RightFoot RightToes
    SpineDummy Spine
    Spine Spine1
    Spine1 HEadDummy LeftShoulder1Dummy RightShoulderDummy
    HEadDummy HEad
    LeftShoulder1Dummy LeftShoulder1
    LeftShoulder1 LeftArm
    LeftArm LeftForeArm
    LeftForeArm LeftHand
    RightShoulderDummy RightShoulder
    RightShoulder RightArm
    RightArm RightForeArm
    RightForeArm RightHand
    LeftUpLegDummy LeftUpLeg
    LeftUpLeg LeftLeg
    LeftLeg LeftFoot
    LeftFoot LeftToes
  end

:SAMPLES-PER-SECOND 30
:FULLY-SPECIFIED
:DEGREES
43
root  -5.64972 38.4068 -44.079 -9.42926 7.866 -1.9585
RightUpLeg  21.3583 7.33251 3.73181
RightLeg  -87.5225 -13.2366 4.00933
RightFoot  18.1277 4.83769 -15.5338
RightToes  -1.27222e-014 -6.36111e-015 6.36111e-015
Spine  -31.258 -10.8324 -6.18324
Spine1  4.13577 -9.79755 39.9167
HEad  5.09709 -13.7016 -14.2226
LeftShoulder1  6.36111e-015 -1.33558e-015 6.49777e-015
LeftArm  40.5009 -30.2427 -66.3943
LeftForeArm  -49.9447 -55.6253 42.0949
LeftHand  -2.01985 -2.39511 -18.7834
RightShoulder  -4.77083e-015 -6.36111e-015 -3.18055e-015
RightArm  28.3904 -4.67879 17.8688
RightForeArm  -19.4919 13.3481 -22.0415
RightHand  -0.702612 2.08231 3.15032
LeftUpLeg  31.2211 14.1987 23.9428
LeftLeg  2.32951 -5.01569 -0.768547
LeftFoot  8.31237 3.71386 -9.88965
LeftToes  9.54166e-015 4.2066e-011 -8.07781e-011
44
root  -5.72536 38.8067 -43.1164 -9.0887 10.3169 -2.84966
RightUpLeg  25.2053 5.4479 3.92859
RightLeg  -93.1797 -12.1651 4.28335
RightFoot  20.6732 4.67808 -15.7222
RightToes  -1.27222e-014 -6.36111e-015 6.36111e-015
Spine  -32.7532 -9.54607 -5.92632
Spine1  4.39437 -8.9896 37.1445
HEad  5.51271 -18.1076 -13.0622
LeftShoulder1  6.36111e-015 -1.33558e-015 6.49777e-015
LeftArm  41.8404 -30.8514 -69.1845
LeftForeArm  -45.8923 -56.43 39.7464
LeftHand  -2.17506 -3.74355 -15.6981
RightShoulder  -4.77083e-015 -6.36111e-015 -3.18055e-015
RightArm  31.3266 -1.22785 21.5365
RightForeArm  -14.1958 5.21812 -14.7011
RightHand  -0.474731 2.00396 1.19094
LeftUpLeg  32.232 14.3337 24.6019
LeftLeg  -10.2511 -7.50764 -1.14153
LeftFoot  8.78692 3.70388 -9.74588
LeftToes  9.54166e-015 4.2066e-011 -8.07781e-011
45
root  -5.70154 38.9094 -42.15 -8.8823 12.5998 -3.85252
RightUpLeg  29.1961 5.24961 4.97282
RightLeg  -98.1741 -10.228 5.85093
RightFoot  20.5115 4.23767 -15.0212
RightToes  -1.27222e-014 -6.36111e-015 6.36111e-015
Spine  -34.3536 -8.28974 -5.31725
Spine1  5.5048 -8.36977 34.2962
HEad  5.37417 -21.6467 -12.6783
LeftShoulder1  6.36111e-015 -1.33558e-015 6.49777e-015
LeftArm  42.2649 -30.7457 -70.3829
LeftForeArm  -43.6456 -56.8872 38.4702
LeftHand  -2.09244 -3.90349 -12.8183
RightShoulder  -4.77083e-015 -6.36111e-015 -3.18055e-015
RightArm  36.0169 2.40631 26.8419
RightForeArm  -12.8781 -4.83024 -9.60515
RightHand  -0.515513 2.13713 1.3642
LeftUpLeg  33.1809 14.3031 24.9078
LeftLeg  -21.2074 -8.80347 -0.937441
LeftFoot  10.2298 3.74262 -9.50149
LeftToes  9.54166e-015 4.2066e-011 -8.07781e-011
46
root  -5.60575 38.6955 -41.2383 -8.29815 14.7763 -4.24635
RightUpLeg  31.7093 5.40605 5.87598
RightLeg  -100.832 -8.91333 8.29145
RightFoot  18.1336 4.13211 -14.4054
RightToes  -1.27222e-014 -6.36111e-015 6.36111e-015
Spine  -35.3742 -7.70434 -5.40445
Spine1  6.29933 -7.81374 32.2527
HEad  4.89445 -24.3426 -12.6306
LeftShoulder1  6.36111e-015 -1.33558e-015 6.49777e-015
LeftArm  41.9841 -30.7196 -70.7064
LeftForeArm  -41.3423 -56.249 35.7934
LeftHand  -1.8779 -3.12211 -12.7301
RightShoulder  -4.77083e-015 -6.36111e-015 -3.18055e-015
RightArm  41.3353 4.55979 32.2536
RightForeArm  -13.8703 -13.6096 -6.39897
RightHand  -0.748586 2.54683 2.94082
LeftUpLeg  32.0292 12.7303 22.6291
LeftLeg  -25.0808 -8.62967 -1.00192
LeftFoot  12.3656 3.96995 -9.5708
LeftToes  9.54166e-015 4.2066e-011 -8.07781e-011
47
root  -5.45399 38.2439 -40.4753 -8.24024 17.3502 -4.01613
RightUpLeg  32.8755 4.3831 5.54132
RightLeg  -100.107 -9.53926 10.5666
RightFoot  14.8033 4.61899 -14.5469
RightToes  -1.27222e-014 -6.36111e-015 6.36111e-015
Spine  -34.2108 -7.76314 -5.58937
Spine1  6.89069 -7.46427 30.6945
HEad  2.45011 -26.7422 -11.7586
LeftShoulder1  6.36111e-015 -1.33558e-015 6.49777e-015
LeftArm  41.172 -32.5057 -70.9423
LeftForeArm  -37.0378 -54.8313 30.8673
LeftHand  -1.82613 -2.8529 -13.128
RightShoulder  -4.77083e-015 -6.36111e-015 -3.18055e-015
RightArm  37.1311 0.0643868 25.209
RightForeArm  -10.1038 -10.4302 -1.13442
RightHand  -0.760861 2.5191 3.09597
LeftUpLeg  29.1113 9.26075 17.855
LeftLeg  -19.9674 -7.31048 -1.28918
LeftFoot  12.4888 4.03441 -9.69649
LeftToes  9.54166e-015 4.2066e-011 -8.07781e-011
48
root  -5.19346 37.6525 -39.8332 -9.5059 19.9393 -3.81871
RightUpLeg  33.5192 2.22252 3.98272
RightLeg  -95.6525 -12.3146 11.1889
RightFoot  10.7918 4.44053 -13.3592
RightToes  -1.27222e-014 -6.36111e-015 6.36111e-015
Spine  -31.1105 -7.62175 -4.9095
Spine1  8.69708 -7.04447 29.3638
HEad  -2.9839 -29.2447 -9.77831
LeftShoulder1  6.36111e-015 -1.33558e-015 6.49777e-015
LeftArm  39.448 -36.1302 -70.9278
LeftForeArm  -31.735 -53.5372 25.8618
LeftHand  -1.79372 -2.8455 -12.5461
RightShoulder  -4.77083e-015 -6.36111e-015 -3.18055e-015
RightArm  30.7382 -9.57005 12.3473
RightForeArm  -5.26446 -5.50617 3.08698
RightHand  -0.21005 1.18673 0.0820662
LeftUpLeg  27.141 6.94508 14.212
LeftLeg  -11.3987 -6.66469 -1.20862
LeftFoot  9.50943 3.51285 -9.08217
LeftToes  9.54166e-015 4.2066e-011 -8.07781e-011
49
root  -4.86057 37.1951 -39.221 -10.6798 21.5144 -3.37625
RightUpLeg  33.128 2.80466 3.39703
RightLeg  -88.571 -14.7709 12.067
RightFoot  8.48013 2.48118 -9.0124
RightToes  -1.27222e-014 -6.36111e-015 6.36111e-015
Spine  -28.0122 -8.16176 -5.43858
Spine1  11.7319 -6.59745 29.1247
HEad  -9.36217 -31.1623 -7.90646
LeftShoulder1  6.36111e-015 -1.33558e-015 6.49777e-015
LeftArm  35.8201 -38.8366 -69.3414
LeftForeArm  -28.45 -53.3799 23.5951
LeftHand  -1.55504 -2.15011 -11.6948
RightShoulder  -4.77083e-015 -6.36111e-015 -3.18055e-015
RightArm  30.4347 -17.8477 4.10436
RightForeArm  -6.73456 -8.1704 3.27127
RightHand  0.778189 -0.197672 -5.59747
LeftUpLeg  26.7474 6.99369 12.7109
LeftLeg  -5.54817 -6.02743 -1.08416
LeftFoot  5.46323 3.00895 -8.64006
LeftToes  9.54166e-015 4.2066e-011 -8.07781e-011
50
root  -4.51372 36.9017 -38.5811 -9.94683 21.8918 -1.90864
RightUpLeg  28.8479 4.41448 1.90837
RightLeg  -77.4852 -17.8413 10.9229
RightFoot  11.0709 -0.488289 -4.48296
RightToes  -1.27222e-014 -6.36111e-015 6.36111e-015
Spine  -25.7715 -10.6107 -9.4128
Spine1  14.0681 -6.89516 30.7586
HEad  -13.7769 -31.5106 -7.29787
LeftShoulder1  6.36111e-015 -1.33558e-015 6.49777e-015
LeftArm  30.4434 -38.7415 -65.7013
LeftForeArm  -29.4178 -54.2651 25.0474
LeftHand  -1.26767 -1.23531 -11.2152
RightShoulder  -4.77083e-015 -6.36111e-015 -3.18055e-015
RightArm  34.1574 -23.6686 0.362763
RightForeArm  -11.4325 -14.0107 1.99822
RightHand  1.5089 -0.168712 -11.0791
LeftUpLeg  26.2356 9.00465 12.4133
LeftLeg  -2.75667 -6.00438 -0.996032
LeftFoot  2.68706 2.85869 -8.86492
LeftToes  9.54166e-015 4.2066e-011 -8.07781e-011
